<svg xmlns="http://www.w3.org/2000/svg" xmlns:xlink="http://www.w3.org/1999/xlink" width="362" height="328" viewBox="0 0 362 328">
  <defs>
    <clipPath id="clip-path">
      <path id="Rectangle_24" data-name="Rectangle 24" d="M50,0H337a25,25,0,0,1,25,25V278a50,50,0,0,1-50,50H25A25,25,0,0,1,0,303V50A50,50,0,0,1,50,0Z" fill="#fff"/>
    </clipPath>
  </defs>
  <g id="Mask_Group_2" data-name="Mask Group 2" clip-path="url(#clip-path)">
    <g id="Group_210" data-name="Group 210" transform="matrix(0.454, -0.891, 0.891, 0.454, -151.537, 548.428)" opacity="0.1">
      <path id="Path_1" data-name="Path 1" d="M64.872,45.793a2.084,2.084,0,0,0-.3-.924L37.57.551A1.611,1.611,0,0,0,36.606-.2a1.2,1.2,0,0,0-1.075.24L.368,28.735a1.714,1.714,0,0,0-.563,1.472,2.085,2.085,0,0,0,.3.924L27.107,75.449a1.609,1.609,0,0,0,.964.752,1.2,1.2,0,0,0,1.075-.24l35.162-28.7A1.713,1.713,0,0,0,64.872,45.793ZM-.079,30.205a1.576,1.576,0,0,1,.518-1.354L35.6.155a1.1,1.1,0,0,1,.989-.221,1.481,1.481,0,0,1,.887.692L64.484,44.945a1.914,1.914,0,0,1,.272.85,1.578,1.578,0,0,1-.518,1.354l-35.162,28.7a1.105,1.105,0,0,1-.989.221,1.482,1.482,0,0,1-.887-.692L.193,31.055A1.914,1.914,0,0,1-.079,30.205Z" transform="translate(181.448 217.732)" fill="#0093de"/>
      <path id="Path_2" data-name="Path 2" d="M51.982,37.335a1.742,1.742,0,0,0-.246-.775L29.737.445a1.285,1.285,0,0,0-.779-.607A.943.943,0,0,0,28.1.05L.274,24.14a1.439,1.439,0,0,0-.438,1.2,1.745,1.745,0,0,0,.246.775l22,36.115a1.072,1.072,0,0,0,1.636.4l27.826-24.09A1.439,1.439,0,0,0,51.982,37.335ZM-.068,25.341a1.32,1.32,0,0,1,.4-1.1L28.16.147a.865.865,0,0,1,.787-.195,1.18,1.18,0,0,1,.715.557l22,36.115a1.6,1.6,0,0,1,.226.712,1.32,1.32,0,0,1-.4,1.1L23.658,62.53a.984.984,0,0,1-1.5-.362l-22-36.115A1.6,1.6,0,0,1-.068,25.341Z" transform="translate(195.628 216.699)" fill="#0093de"/>
      <path id="Path_3" data-name="Path 3" d="M39.109,29.029a1.41,1.41,0,0,0-.194-.621L22.067.344A.784.784,0,0,0,20.834.056L.187,19.383a1.168,1.168,0,0,0-.318.937,1.408,1.408,0,0,0,.194.621L16.911,49.006a.964.964,0,0,0,.591.466.688.688,0,0,0,.642-.179L38.791,29.966A1.168,1.168,0,0,0,39.109,29.029ZM-.058,20.319a1.07,1.07,0,0,1,.292-.858L20.88.134A.718.718,0,0,1,22.009.4L38.858,28.461a1.29,1.29,0,0,1,.177.569,1.069,1.069,0,0,1-.292.858L18.1,49.216a.631.631,0,0,1-.589.164.883.883,0,0,1-.541-.427L.119,20.888A1.289,1.289,0,0,1-.058,20.319Z" transform="translate(209.8 215.678)" fill="#0093de"/>
      <path id="Path_4" data-name="Path 4" d="M26.257,20.886a1.087,1.087,0,0,0-.137-.462L14.571.249a.648.648,0,0,0-.4-.331.44.44,0,0,0-.429.141L.108,14.453a.9.9,0,0,0-.205.676,1.084,1.084,0,0,0,.137.462L11.588,35.766c.21.366.582.452.829.19L26.051,21.562A.9.9,0,0,0,26.257,20.886Zm-26.3-5.757A.824.824,0,0,1,.14,14.51L13.775.116a.4.4,0,0,1,.392-.128.592.592,0,0,1,.366.3L26.081,20.465a.994.994,0,0,1,.125.422.824.824,0,0,1-.188.618L12.384,35.9c-.226.239-.566.161-.757-.174L.078,15.55A.993.993,0,0,1-.047,15.128Z" transform="translate(223.959 214.647)" fill="#0093de"/>
      <path id="Path_5" data-name="Path 5" d="M13.422,12.916a.8.8,0,0,0-.075-.3L7.262.16a.346.346,0,0,0-.207-.2.2.2,0,0,0-.217.1l-6.8,9.28a.664.664,0,0,0-.1.421.8.8,0,0,0,.075.3L6.1,22.512a.345.345,0,0,0,.208.2.2.2,0,0,0,.217-.1l6.8-9.28A.665.665,0,0,0,13.422,12.916ZM-.036,9.755a.6.6,0,0,1,.09-.384l6.8-9.28A.186.186,0,0,1,7.053,0a.315.315,0,0,1,.189.183l6.086,12.461a.724.724,0,0,1,.068.269.607.607,0,0,1-.09.384l-6.8,9.28a.186.186,0,0,1-.2.087.315.315,0,0,1-.189-.183L.032,10.024A.72.72,0,0,1-.036,9.755Z" transform="translate(238.11 213.63)" fill="#0093de"/>
      <path id="Path_6" data-name="Path 6" d="M.613,5.127c0-.045,0-.087-.008-.122L.158.077C.15-.013.141-.027.138.045L-.026,4.007c0,.041,0,.105,0,.171,0,.045,0,.087.008.122L.431,9.229a.315.315,0,0,0,.012.077c0,.006.007-.01.008-.045L.615,5.3C.616,5.257.616,5.193.613,5.127Zm-.636-.949c0-.06,0-.118,0-.156L.139.06c0-.066.011-.053.018.029L.6,5.017c0,.032.005.07.007.111,0,.06,0,.118,0,.156L.449,9.246c0,.032,0,.046-.007.041a.291.291,0,0,1-.011-.07L-.016,4.289C-.019,4.257-.022,4.219-.023,4.178Z" transform="translate(252.246 212.625)" fill="#0093de"/>
      <path id="Path_7" data-name="Path 7" d="M0,0ZM0,0Z" transform="translate(266.459 211.929)" fill="#0093de"/>
      <path id="Path_8" data-name="Path 8" d="M463.588,268.609A12.12,12.12,0,0,0,460.8,261.8L245.473,2.552A11.136,11.136,0,0,0,238.217-1.5,9.313,9.313,0,0,0,230.774.845L1.831,208.458A10.4,10.4,0,0,0-1.406,217.1a12.135,12.135,0,0,0,2.786,6.809L216.71,483.152a11.129,11.129,0,0,0,7.254,4.055,9.314,9.314,0,0,0,7.442-2.347L460.352,277.247A10.394,10.394,0,0,0,463.588,268.609Zm-464-51.518a9.4,9.4,0,0,1,2.926-7.811L231.458,1.668a8.415,8.415,0,0,1,6.729-2.121,10.07,10.07,0,0,1,6.561,3.664L460.075,262.46a10.952,10.952,0,0,1,2.52,6.155,9.4,9.4,0,0,1-2.926,7.811L230.725,484.039a8.426,8.426,0,0,1-6.731,2.119,10.063,10.063,0,0,1-6.559-3.662L2.107,223.245A10.942,10.942,0,0,1-.413,217.091Z" transform="translate(0 0)" fill="#0093de"/>
      <path id="Path_9" data-name="Path 9" d="M450.468,257.151a11.931,11.931,0,0,0-2.842-6.776L234.363,2.357a10.78,10.78,0,0,0-7.117-3.808A9.045,9.045,0,0,0,220.06.975L1.614,207.295A10.151,10.151,0,0,0-1.4,215.569a11.946,11.946,0,0,0,2.841,6.777L214.707,470.365a10.781,10.781,0,0,0,7.116,3.807,9.034,9.034,0,0,0,7.186-2.428l218.447-206.32A10.153,10.153,0,0,0,450.468,257.151ZM-.4,215.564a9.151,9.151,0,0,1,2.715-7.46L220.758,1.785A8.146,8.146,0,0,1,227.236-.4,9.712,9.712,0,0,1,233.65,3.03L446.913,251.048a10.755,10.755,0,0,1,2.561,6.108,9.161,9.161,0,0,1-2.716,7.459L228.312,470.936a8.156,8.156,0,0,1-6.479,2.188,9.727,9.727,0,0,1-6.414-3.431L2.157,221.673A10.74,10.74,0,0,1-.4,215.564Z" transform="translate(6.556 6.493)" fill="#0093de"/>
      <path id="Path_10" data-name="Path 10" d="M437.354,245.7a11.6,11.6,0,0,0-2.9-6.747L223.259,2.165A10.427,10.427,0,0,0,216.283-1.4a8.782,8.782,0,0,0-6.932,2.51L1.4,206.134a9.919,9.919,0,0,0-2.791,7.911,11.6,11.6,0,0,0,2.9,6.748l211.2,236.786c3.864,4.331,10.1,4.8,13.906,1.052L434.564,253.608A9.923,9.923,0,0,0,437.354,245.7ZM-.4,214.041a8.917,8.917,0,0,1,2.509-7.111L210.061,1.907A7.887,7.887,0,0,1,216.29-.348a9.377,9.377,0,0,1,6.27,3.2l211.2,236.785a10.412,10.412,0,0,1,2.605,6.062,8.923,8.923,0,0,1-2.506,7.111L225.9,457.834c-3.417,3.372-9.025,2.947-12.5-.945L2.209,220.1A10.421,10.421,0,0,1-.4,214.041Z" transform="translate(13.108 12.985)" fill="#0093de"/>
      <path id="Path_11" data-name="Path 11" d="M424.248,234.238a11.245,11.245,0,0,0-2.961-6.715L212.155,1.97c-3.832-4.132-9.892-4.458-13.51-.725L1.193,204.974a9.686,9.686,0,0,0-2.573,7.549,11.231,11.231,0,0,0,2.962,6.717L210.713,444.791c3.831,4.133,9.892,4.46,13.511.726l197.449-203.73A9.689,9.689,0,0,0,424.248,234.238ZM-.387,212.516a8.678,8.678,0,0,1,2.3-6.76L199.368,2.026c3.241-3.343,8.671-3.051,12.1.651L420.6,228.231a10.061,10.061,0,0,1,2.652,6.014,8.673,8.673,0,0,1-2.305,6.762L223.5,444.737c-3.243,3.342-8.671,3.048-12.1-.652L2.266,218.533A10.077,10.077,0,0,1-.387,212.516Z" transform="translate(19.657 19.472)" fill="#0093de"/>
      <path id="Path_12" data-name="Path 12" d="M411.153,222.794a10.918,10.918,0,0,0-3.031-6.688L201.058,1.785c-3.8-3.933-9.684-4.11-13.115-.4L.988,203.824a9.461,9.461,0,0,0-2.36,7.182A10.917,10.917,0,0,0,1.659,217.7L208.723,432.017c3.8,3.932,9.684,4.111,13.116.4L408.792,229.979A9.475,9.475,0,0,0,411.153,222.794ZM-.378,211a8.44,8.44,0,0,1,2.106-6.41L188.682,2.156C191.745-1.16,197-1,200.389,2.509l207.064,214.32a9.742,9.742,0,0,1,2.706,5.971,8.454,8.454,0,0,1-2.108,6.412L221.1,431.649c-3.065,3.316-8.316,3.155-11.709-.358L2.327,216.972A9.739,9.739,0,0,1-.378,211Z" transform="translate(26.2 25.952)" fill="#0093de"/>
      <path id="Path_13" data-name="Path 13" d="M398.065,211.356a10.557,10.557,0,0,0-3.1-6.656L189.964,1.61a9.391,9.391,0,0,0-6.557-2.823,8.026,8.026,0,0,0-6.162,2.759L.791,202.684A9.115,9.115,0,0,0-1.361,209.5a10.555,10.555,0,0,0,3.1,6.659l205,203.09c3.767,3.731,9.473,3.763,12.718.067l176.455-201.14A9.121,9.121,0,0,0,398.065,211.356ZM-.367,209.5a8.108,8.108,0,0,1,1.914-6.065L178,2.294A7.132,7.132,0,0,1,183.481-.16a8.358,8.358,0,0,1,5.832,2.511l205,203.089a9.4,9.4,0,0,1,2.761,5.924,8.113,8.113,0,0,1-1.912,6.065L218.7,418.566c-2.885,3.289-7.959,3.26-11.312-.058l-205-203.089A9.4,9.4,0,0,1-.367,209.5Z" transform="translate(32.739 32.425)" fill="#0093de"/>
      <path id="Path_14" data-name="Path 14" d="M384.988,199.919a10.238,10.238,0,0,0-3.183-6.63L178.873,1.431c-3.737-3.533-9.264-3.412-12.321.268L.593,201.542a8.9,8.9,0,0,0-1.946,6.451,10.234,10.234,0,0,0,3.181,6.631L204.762,406.484c3.738,3.529,9.266,3.411,12.323-.27L383.041,206.373A8.906,8.906,0,0,0,384.988,199.919ZM-.358,207.988a7.885,7.885,0,0,1,1.724-5.717L167.324,2.429c2.709-3.261,7.607-3.368,10.918-.238L381.175,194.05a9.059,9.059,0,0,1,2.819,5.874,7.887,7.887,0,0,1-1.725,5.717L216.311,405.485c-2.709,3.261-7.6,3.368-10.919.236L2.461,213.864A9.061,9.061,0,0,1-.358,207.988Z" transform="translate(39.273 38.897)" fill="#0093de"/>
      <path id="Path_15" data-name="Path 15" d="M371.92,188.494a10.039,10.039,0,0,0-3.266-6.6L167.787,1.266a8.734,8.734,0,0,0-6.277-2.327,7.557,7.557,0,0,0-5.647,2.928L.4,200.414A8.694,8.694,0,0,0-1.344,206.5a10.045,10.045,0,0,0,3.267,6.6L202.79,393.727c3.706,3.333,9.055,3.063,11.922-.6l155.459-198.55A8.689,8.689,0,0,0,371.92,188.494Zm-372.272,18a7.68,7.68,0,0,1,1.542-5.372L156.652,2.576a6.661,6.661,0,0,1,4.983-2.584,7.7,7.7,0,0,1,5.541,2.054L368.043,182.673a8.862,8.862,0,0,1,2.883,5.826,7.677,7.677,0,0,1-1.542,5.372L213.925,392.419c-2.531,3.232-7.253,3.469-10.525.528L2.533,212.322A8.863,8.863,0,0,1-.351,206.494Z" transform="translate(45.803 45.359)" fill="#0093de"/>
      <path id="Path_16" data-name="Path 16" d="M358.866,177.071a9.706,9.706,0,0,0-3.361-6.573L156.706,1.1A8.4,8.4,0,0,0,150.57-.975a7.332,7.332,0,0,0-5.389,3.013L.219,199.291a8.489,8.489,0,0,0-1.554,5.717,9.7,9.7,0,0,0,3.36,6.574l198.8,169.4c3.671,3.13,8.843,2.711,11.522-.935L357.312,182.791A8.513,8.513,0,0,0,358.866,177.071ZM-.342,205a7.469,7.469,0,0,1,1.366-5.026L145.987,2.725A6.449,6.449,0,0,1,150.725.076,7.38,7.38,0,0,1,156.117,1.9L354.919,171.3a8.543,8.543,0,0,1,2.953,5.78,7.481,7.481,0,0,1-1.366,5.025L211.545,379.355c-2.356,3.207-6.9,3.575-10.133.822L2.612,210.783A8.537,8.537,0,0,1-.342,205Z" transform="translate(52.325 51.816)" fill="#0093de"/>
      <path id="Path_17" data-name="Path 17" d="M345.826,165.65a9.4,9.4,0,0,0-3.462-6.547L145.632.943c-3.643-2.929-8.635-2.359-11.126,1.27L.042,198.171a8.3,8.3,0,0,0-1.368,5.348,9.393,9.393,0,0,0,3.461,6.547L198.868,368.227c3.645,2.929,8.635,2.358,11.125-1.269L344.458,171A8.31,8.31,0,0,0,345.826,165.65ZM-.333,203.514a7.268,7.268,0,0,1,1.2-4.683L135.329,2.875a6.6,6.6,0,0,1,9.741-1.112L341.8,159.925a8.217,8.217,0,0,1,3.031,5.73,7.289,7.289,0,0,1-1.2,4.684L209.169,366.3a6.591,6.591,0,0,1-9.738,1.111L2.7,209.245A8.221,8.221,0,0,1-.333,203.514Z" transform="translate(58.841 58.268)" fill="#0093de"/>
      <path id="Path_18" data-name="Path 18" d="M332.8,154.241a9.069,9.069,0,0,0-3.569-6.516L134.564.795c-3.614-2.726-8.425-2.006-10.725,1.607L-.129,197.064a7.992,7.992,0,0,0-1.188,4.979,9.077,9.077,0,0,0,3.566,6.519L196.921,355.492c3.613,2.727,8.424,2.005,10.724-1.607L331.611,159.221A7.992,7.992,0,0,0,332.8,154.241ZM-.324,202.039A6.982,6.982,0,0,1,.711,197.7L124.679,3.036a6.342,6.342,0,0,1,9.349-1.4L328.7,148.566a7.908,7.908,0,0,1,3.11,5.68,6.975,6.975,0,0,1-1.037,4.338L206.8,353.249a6.339,6.339,0,0,1-9.349,1.4L2.787,207.72A7.91,7.91,0,0,1-.324,202.039Z" transform="translate(65.349 64.71)" fill="#0093de"/>
      <path id="Path_19" data-name="Path 19" d="M319.791,142.842a8.876,8.876,0,0,0-3.688-6.489L123.5.655A7.029,7.029,0,0,0,113.179,2.6L-.29,195.968a7.81,7.81,0,0,0-1.018,4.608,8.869,8.869,0,0,0,3.688,6.488l192.6,135.7a7.029,7.029,0,0,0,10.323-1.944L318.775,147.452A7.837,7.837,0,0,0,319.791,142.842ZM-.315,200.572a6.772,6.772,0,0,1,.883-4L114.037,3.2A6.1,6.1,0,0,1,123,1.517l192.6,135.7a7.71,7.71,0,0,1,3.2,5.634,6.78,6.78,0,0,1-.885,4L204.445,340.215a6.1,6.1,0,0,1-8.958,1.685L2.884,206.2A7.713,7.713,0,0,1-.315,200.572Z" transform="translate(71.849 71.145)" fill="#0093de"/>
      <path id="Path_20" data-name="Path 20" d="M306.8,131.451a8.567,8.567,0,0,0-3.815-6.461L112.448.524a6.8,6.8,0,0,0-9.921,2.286L-.444,194.881a7.655,7.655,0,0,0-.856,4.238,8.576,8.576,0,0,0,3.816,6.462L193.053,330.048a6.8,6.8,0,0,0,9.92-2.285L305.944,135.689A7.658,7.658,0,0,0,306.8,131.451ZM-.306,199.113a6.613,6.613,0,0,1,.738-3.658L103.4,3.382a5.872,5.872,0,0,1,8.571-1.974L302.508,125.874a7.406,7.406,0,0,1,3.3,5.582,6.614,6.614,0,0,1-.739,3.66L202.1,327.189a5.867,5.867,0,0,1-8.568,1.973L2.989,204.7A7.4,7.4,0,0,1-.306,199.113Z" transform="translate(78.342 77.568)" fill="#0093de"/>
      <path id="Path_21" data-name="Path 21" d="M293.826,120.07a8.38,8.38,0,0,0-3.955-6.432L101.4.4a6.574,6.574,0,0,0-9.516,2.628L-.589,193.808a7.514,7.514,0,0,0-.7,3.865,8.393,8.393,0,0,0,3.954,6.433L191.134,317.34a6.575,6.575,0,0,0,9.517-2.628l92.472-190.776A7.486,7.486,0,0,0,293.826,120.07ZM-.3,197.668a6.425,6.425,0,0,1,.605-3.322L92.78,3.569a5.654,5.654,0,0,1,8.183-2.259L289.433,114.543a7.115,7.115,0,0,1,3.4,5.532,6.435,6.435,0,0,1-.6,3.323L199.755,314.175a5.653,5.653,0,0,1-8.183,2.258L3.1,203.2A7.11,7.11,0,0,1-.3,197.668Z" transform="translate(84.824 83.981)" fill="#0093de"/>
      <path id="Path_22" data-name="Path 22" d="M280.878,108.7a8.085,8.085,0,0,0-4.106-6.4L90.367.3a6.371,6.371,0,0,0-9.111,2.97L-.721,192.747a7.359,7.359,0,0,0-.562,3.491,8.083,8.083,0,0,0,4.109,6.4l186.4,102a6.367,6.367,0,0,0,9.11-2.968l81.977-189.483A7.344,7.344,0,0,0,280.878,108.7ZM-.289,196.233a6.277,6.277,0,0,1,.484-2.986L82.17,3.765a5.449,5.449,0,0,1,7.795-2.542l186.405,102a6.92,6.92,0,0,1,3.514,5.48,6.281,6.281,0,0,1-.481,2.988L197.427,301.175a5.45,5.45,0,0,1-7.8,2.541l-186.4-102A6.93,6.93,0,0,1-.289,196.233Z" transform="translate(91.293 90.383)" fill="#0093de"/>
    </g>
  </g>
</svg>
