<svg xmlns="http://www.w3.org/2000/svg" width="320.825" height="178.528" viewBox="0 0 320.825 178.528">
  <path id="circle_note" data-name="circle note" d="M81.054,174.8c0,.2-.1.34-.256.34a1.07,1.07,0,0,1-.593-.34c-.192-.2-.08-.35.256-.35S81.054,174.594,81.054,174.8ZM330,89.338c.353,0,.449-.146.256-.34a.952.952,0,0,0-.593-.35c-.144,0-.256.136-.256.35C329.412,89.193,329.668,89.338,330,89.338Zm-2.324,0a1.332,1.332,0,0,0,.881-.34c.192-.2-.032-.35-.545-.35s-.882.146-.882.35S327.36,89.338,327.681,89.338Zm15.4,49.274c-.288,0-.385.243-.224.515s.417.525.545.525c.112,0,.224-.243.224-.525A.547.547,0,0,0,343.082,138.613Zm17.741-42.968c-.256-.408-.417-.427-.8-.049-.385.359-.481.34-.481-.068,0-.3-.545-.564-1.234-.593-1.074-.039-1.122.01-.369.466C359.124,96.131,361.24,96.305,360.823,95.645Zm-42.662,56.27c-.4-.136-.673-.126-.673.039a8.423,8.423,0,0,1-2.564,1.137c-1.475.5-2.564,1.1-2.564,1.428s-.4.534-.962.476c-1.026-.087-2.436.564-2.436,1.127,0,.175.449.447.962.564s.769.117.561-.019c-.224-.126.288-.593,1.138-1.03,1.09-.554,1.747-.69,2.212-.447.513.253.609.156.4-.359-.144-.379-.048-.709.241-.709a10.424,10.424,0,0,0,2.436-.981C318.225,152.479,318.626,152.08,318.161,151.915ZM291.91,88.24c3.686-.136,3.686-.622,0-.622-1.6,0-2.853.155-2.853.359S290.2,88.3,291.91,88.24Zm-60.964,6.112c.545-.117,1.715-.321,2.564-.427s1.571-.33,1.571-.486c0-.36-.8-.34-3.253.087-1.01.175-1.875.5-1.875.69S230.386,94.479,230.947,94.352Zm149.861,7.113a20.079,20.079,0,0,0-.753,3.828.45.45,0,0,1-.625.418c-.32-.126-.577-.058-.577.155s.224.359.513.359c.545,0,.369.554-1.138,3.79a14.193,14.193,0,0,0-.769,1.788c-.064.583-1.138.418-1.33-.2-.24-.719-1.811-1.836-1.811-1.273,0,.2.224.428.561.554.962.35-.913,1.176-2.212.972l-1.2-.185,1.25-1.069c.689-.583.914-.933.481-.777-.5.194-.625.165-.352-.1a2.574,2.574,0,0,1,1.474-.4,2.569,2.569,0,0,0,1.41-.35.856.856,0,0,1,.881-.146c.32.107.545-.039.545-.35s.3-.534.705-.534c.481,0,.433-.117-.128-.34a5.064,5.064,0,0,0-1.426-.35c-.3,0-.224.136.176.292.561.233.417.418-.657.845-1.2.476-1.442.486-1.715.058-.176-.3.032-.505.545-.505.449,0,.689-.155.513-.34s.048-.447.513-.554c.737-.185.737-.272.048-.69-1.186-.729-.385-1.846,1.362-1.914l1.49-.049-1.571-.136c-.913-.088-1.41-.291-1.218-.505a9.545,9.545,0,0,0,.561-2.983c.144-1.545.529-2.74.946-2.925.513-.223.449-.262-.224-.117-.769.146-.994-.126-1.17-1.438-.128-.894.032-1.73.369-1.875.385-.165.337-.253-.112-.253-.4,0-.705-.155-.705-.35s.5-.34,1.186-.34c1.026,0,1.09-.078.481-.515a1.165,1.165,0,0,0-1.507-.126c-.449.224-.737.262-.673.088.176-.428-.577-2.245-1.234-2.964-.4-.447-.337-.544.32-.4.593.136.753.019.513-.36a1.432,1.432,0,0,0-1.138-.554c-.417,0-.8-.272-.8-.583,0-.661-2.9-2.536-9.936-6.433-1.875-1.03-2.132-1.312-1.458-1.584.737-.282.721-.35-.144-.544-.5-.117-.961-.379-.961-.554,0-.194.224-.243.577-.117.3.107.561.029.561-.175,0-.544.962-.418,1.33.175a1.407,1.407,0,0,0,1.058.515c.962,0,2.725,1.254,2.244,1.584-.208.126-.032.117.369-.019.481-.165,1.747.4,3.558,1.564a17.764,17.764,0,0,1,2.8,2.05,8.1,8.1,0,0,0,1.667,1.506c1.971,1.5,5.193,6.374,5.4,8.162a3.837,3.837,0,0,0,.465,1.574,6.327,6.327,0,0,1,.224,2.575c-.048,1.283.128,2.215.369,2.128C380.984,100.377,381.016,100.814,380.808,101.465Zm-5.93-13.983c0-.058-.369-.107-.817-.107-.465,0-.705.126-.545.272C373.756,87.9,374.878,87.755,374.878,87.483Zm2.853,18.394c0-.2-.24-.34-.577-.34s-.561.136-.561.34.224.35.561.35S377.73,106.09,377.73,105.877Zm.449-6.646a1.816,1.816,0,0,0,1.074-.039c.176-.107-.16-.185-.737-.165C377.843,99.046,377.715,99.123,378.179,99.23Zm-.449-3.537c0-.087-.24-.155-.577-.155-.32,0-.561.155-.561.369s.24.272.561.155C377.49,95.936,377.73,95.79,377.73,95.693Zm1.747,5.451c-1.25-.573-1.955-.544-1.57.087.176.272.08.515-.208.515-.337,0-.545.136-.545.34,0,.185.4.35.849.35.465,0,.849-.2.849-.437,0-.311.144-.311.513.039.417.379.561.379.769,0C380.279,101.776,379.99,101.387,379.477,101.145ZM376.016,112.6c0,.35-.449.427-1.651.291a3.251,3.251,0,0,0-2.035.2c-.288.272.048.35,1.074.224a2.342,2.342,0,0,1,1.971.379.981.981,0,0,1-.9,1.671c-.449-.107-.641-.049-.449.136s-.336,1.176-1.186,2.245c-1.218,1.516-1.7,1.836-2.308,1.535-.4-.194-.641-.505-.513-.641.144-.146-.08-.534-.481-.874-.657-.554-.705-.486-.465.554a2.423,2.423,0,0,0,1.058,1.516c.513.223.577.515.192.855-.368.35-.561.369-.577.068,0-.515-1.474-.564-1.971-.068-.192.2.032.262.545.136.577-.136.865-.01.865.369,0,.34-.256.466-.641.321-.449-.165-.545-.068-.321.311.192.311.176.6-.048.661a13.479,13.479,0,0,0-2.356,2.06c-1.987,2-2.885,2.449-2.885,1.448,0-.272-.385-.6-.849-.7-.449-.107-.705-.34-.529-.505.16-.165-.112-.2-.625-.087-.689.165-.753.292-.256.476.882.321.112.564-1.539.486-1.442-.078-1.907.437-1.266,1.4.256.379.513.583.561.447a10.723,10.723,0,0,0,.449-1.234c.048-.175.817-.3,1.731-.282s1.555.1,1.426.175c-.144.078,0,.311.337.554.849.622-3.494,2.74-4.439,2.167-.513-.311-.673-.272-.673.175,0,.311.433.583.913.583.737,0,.769.1.208.515-.689.505-1.955.379-1.426-.136.128-.126-.016-.466-.32-.739-.465-.4-.529-.359-.4.185.1.418-.128.661-.561.612-.4-.049-.593.068-.4.253a.8.8,0,0,0,.849.155c.625-.223.753.311.176.67a.984.984,0,0,0-.513.593c-.048.185-.1.4-.144.544s-.449-.049-.849-.4c-.705-.573-.769-.525-.657.437.064.583-.08,1-.321.913a.546.546,0,0,0-.657.253c-.128.243-.641.311-1.218.175-.561-.136-.817-.408-.593-.632.256-.262.112-.34-.4-.233a1.424,1.424,0,0,0-.994.777c-.128.418.032.525.513.35.513-.194.625-.058.4.5-.256.622-.176.69.481.35,1.282-.661.9-.175-.817.991-1.763,1.215-2.548,1.438-2,.593.176-.282.176-.515.016-.515-.176,0-.561.5-.865,1.117-.5,1.03-.561,1.059-.93.34-.208-.408-.641-.777-.914-.777-.657,0-.641.243.08,1.069.449.525.433.816-.048,1.176-.881.651-1.683.651-1.683,0a.571.571,0,0,0-.593-.515c-.336,0-.417-.194-.192-.437.208-.233-.144-.136-.833.223-1.186.641-1.218.641-1.282,0a4.58,4.58,0,0,1,.032-.981c.048-.185-.625.126-1.539.709-1.7,1.069-2.212,1.924-.994,1.623a1.99,1.99,0,0,0,1.106-.729c.337-.476.433-.486.881-.068.336.311.272.593-.16.777s-.288.253.4.194c.753-.078,1.138.136,1.266.719.176.719.08.768-.753.34-.865-.428-.93-.408-.561.175.577.923-.577,1.6-2.4,1.409-.8-.087-1.17-.078-.817.019a.608.608,0,0,1,.369.865.692.692,0,0,1-.8.486c-.3-.117-.513-.058-.513.136,0,.175-.449.3-.962.272-.625-.029-.978.194-.994.641-.016.476-.353.651-1.106.564-.8-.087-.994.029-.721.447.256.4.064.544-.625.466-.561-.058-.994.107-.994.379s-.4.554-.849.641c-.737.136-.737.1,0-.262s.737-.389,0-.253c-.465.087-.769.428-.657.768.16.476-.08.583-.994.437-.673-.107-1.186-.068-1.186.1s-.513.389-1.2.525c-.737.136-1.09.447-.93.807.144.35-.32.845-1.17,1.224-.785.36-1.234.457-.994.224.689-.69-.657-.418-2.42.476-1.523.777-1.667.8-1.41.175.144-.379.481-.69.737-.69a1.086,1.086,0,0,0,.737-.457c.224-.369,0-.389-1.09-.087-.737.2-1.362.505-1.362.651,0,.165-.192.2-.5.087a.724.724,0,0,0-.833.291c-.3.486-8.318,4.237-8.943,4.188s-5.369,2.7-5.208,3.012c.08.165-.032.2-.3.107a5.823,5.823,0,0,0-2.276.476c-1.314.476-1.715.826-1.458,1.263.3.486.449.505.721.107a1.968,1.968,0,0,1,1.266-.593c.737-.068.865.087.609.67-.192.418-.433.583-.545.369-.144-.291-.545-.272-1.507.1a3.041,3.041,0,0,1-1.827.243c-.273-.146-.176-.029.208.243s.705.661.705.865-.208.155-.513-.126c-.433-.408-.737-.389-2.035.126-1.49.573-1.523.573-1.17-.087a.616.616,0,0,0-.224-.913c-.32-.126-.593.019-.593.291,0,.758-.914.972-1.01.243-.048-.36.513-.8,1.314-1.02.737-.214,1.394-.554,1.394-.738,0-.282,2.388-1.2,3.8-1.477a10.251,10.251,0,0,0,1.795-.855,6.6,6.6,0,0,1,1.907-.768,65.182,65.182,0,0,0,8.414-3.9c.769-.408,2.1-1.03,2.9-1.341a24.177,24.177,0,0,0,2.4-1.137c.513-.3.946-.457.946-.35,0,.175,1.587-.612,4.375-2.167a6.336,6.336,0,0,1,1.907-.758.533.533,0,0,0,.529-.515c0-.282.353-.525.753-.525.849,0,4.68-2.322,4.263-2.585a3.515,3.515,0,0,0-1.715.632c-2.949,1.652-6.6,3.333-7.212,3.333-.337,0-.625.155-.625.35s-.288.34-.689.34c-.369,0,.064-.466.945-1.011a6.418,6.418,0,0,1,1.955-.952.618.618,0,0,0,.593-.272,28.028,28.028,0,0,1,3.862-2.07c1.987-.952,7.148-3.848,11.459-6.442,7.5-4.518,7.981-4.7,7.516-2.935-.048.165-.32.185-.673.058a2.572,2.572,0,0,0-1.763.67,2.7,2.7,0,0,1-1.811.671q-.673-.233-.1.117c1.042.661,3.141.865,3.141.311,0-.272.385-.68.9-.923.753-.369.993-.369,1.346-.019.32.33.625.311,1.3-.087a1.577,1.577,0,0,1,1.314-.272c.241.126.257.049.032-.194-.3-.321-.689-.34-1.491-.078-1.587.505-2.035-.282-.625-1.088,1.378-.768,1.523-1.185.577-1.526-.4-.136.032-.632,1.186-1.36a5.11,5.11,0,0,1,3.478-1.011c1.138.078,1.651-.029,1.651-.369,0-.6-.288-.622-1.763-.146-1.41.457-1.362.185.16-.884,1.17-.826,2.6-1.215,1.891-.515-.208.194-.112.6.208.943.5.525.577.466.609-.359.016-.554.272-.875.593-.758s.561-.019.561-.291c0-.33-.417-.437-1.266-.33-1.074.146-.946,0,.705-.874a11.653,11.653,0,0,1,2.468-1.069c.256-.01.352-.243.208-.486-.16-.253.3-.913,1.042-1.457,1.01-.758,1.346-.855,1.362-.4a.625.625,0,0,0,.625.6q.6,0-.048-.729c-.545-.593-.465-.875.481-1.632a3.214,3.214,0,0,1,1.763-.826c.545.078.817-.262.753-.952-.016-.1.32-.359.785-.612.449-.262.785-.3.785-.087s.256.36.593.36c.353,0,.465-.146.256-.35-.192-.194-.08-.34.257-.34.4,0,.369-.224-.08-.67-.561-.554-.529-.787.176-1.292a16.059,16.059,0,0,0,2.18-2.254c1.122-1.38,1.587-1.642,2.933-1.642a4.2,4.2,0,0,0,1.939-.34A.86.86,0,0,1,376.016,112.6Zm-78.592,47.758c-.064.019-.577.107-1.09.194-1.186.194-1.346.7-.224.7a1.466,1.466,0,0,0,1.138-.466C297.391,160.544,297.471,160.34,297.423,160.359Zm27.02-11.233c-.288-.962-.978-1.108-1.49-.311-.481.758-.433.826.545.826.513,0,.705.156.465.4s-.176.311.16.175A.879.879,0,0,0,324.443,149.126Zm2.131-1.914c0-.194-.224-.33-.577-.33a.532.532,0,0,0-.561.534c0,.311.24.447.561.33C326.351,147.62,326.575,147.407,326.575,147.212Zm2.933-1.5a1.063,1.063,0,0,0-.994.165c-.529.525.24.855.961.418C329.876,146.056,329.876,145.842,329.508,145.716Zm3.878-1.448c0-.68-.224-.641-2.1.36-.849.447-1.25.855-.849.865a1.281,1.281,0,0,0,1.074-.525,1.1,1.1,0,0,1,1.122-.359C333.082,144.715,333.386,144.579,333.386,144.268Zm2.676-1.642a.534.534,0,0,0-.481-.564.513.513,0,0,1-.481-.515c0-.282-.321-.515-.689-.505-1.026.029-4.183,1.963-3.686,2.264.208.126.882-.107,1.474-.525,1.234-.855,2.26-.9,3.189-.136C336,143.15,336.063,143.15,336.063,142.626Zm.625-2.653c.385-.379.593-.671.449-.671-.385,0-1.587,1.069-1.362,1.2C335.9,140.585,336.3,140.352,336.687,139.973Zm3.189,1.428c-.689.029-.817.107-.353.214a1.881,1.881,0,0,0,1.09-.039C340.79,141.47,340.438,141.392,339.877,141.4Zm-3.013.146a2.781,2.781,0,0,0,1.795-.466c1.122-.69,1.122-.709.016-.661C337.2,140.488,336,141.227,336.864,141.547Zm2.66-4.159c-.176-.107-.5.088-.705.437-.288.476-.208.525.336.185C339.556,137.767,339.716,137.5,339.524,137.388Zm13.414-5.733a1.4,1.4,0,0,0-.962-.243c-.513.029-.513.078,0,.194a.5.5,0,0,1,.369.739c-.256.476-.208.5.289.087C352.954,132.151,353.1,131.811,352.938,131.655Zm6.426-3.984a2.192,2.192,0,0,1,1.507-.427c1.026,0,1.09-.058.369-.34-1.362-.544-2.019-.418-2.083.408C359.108,127.759,359.2,127.914,359.365,127.671Zm6.475-4.324c-.753-.583-1.186-.748-1.186-.447a2.761,2.761,0,0,0,.994.6C366.528,123.921,366.56,123.9,365.839,123.347Zm6.2-6.627c0-.1-.224-.156-.577-.156-.321,0-.561.156-.561.36s.24.272.561.155C371.817,116.954,372.041,116.808,372.041,116.721Zm-.577-2.089c0,.2.288.175.689-.068s.561-.486.4-.583A.846.846,0,0,0,371.464,114.632ZM110.606,133.715c12.484-7.123,28.366-14.021,47.454-20.61,3.478-1.2,6.731-2.41,7.308-2.711a2.74,2.74,0,0,1,1.314-.427c.144.058,3.654-.9,7.869-2.157,4.2-1.253,8.638-2.526,9.92-2.828a7,7,0,0,0,2.292-.787,7.477,7.477,0,0,1,2.564-.69,5.8,5.8,0,0,0,2.548-.777c0-.194.24-.243.577-.126s.561.087.561-.1.352-.311.8-.311c.753,0,11.475-2.488,14.776-3.43a12.769,12.769,0,0,1,2.676-.466,2.433,2.433,0,0,0,1.362-.34,3.087,3.087,0,0,1,1.619-.35A4.907,4.907,0,0,0,216.2,97.2c.4-.243.689-.321.689-.194a8.568,8.568,0,0,0,2.692-.476,32.137,32.137,0,0,1,4.231-.836,12.633,12.633,0,0,0,3.109-.738,5.651,5.651,0,0,1,1.875-.515.456.456,0,0,0,.513-.262c.112-.2.112-.34,0-.311s-1.026.214-2.051.418-1.843.5-1.843.651c0,.175-.224.214-.577.087-.465-.175-8.013,1.312-20.177,3.965-12.741,2.789-35.963,9.416-49.553,14.148-7.052,2.458-19.023,7.132-24.889,9.727-9.776,4.314-25.946,13.05-24.9,13.448C105.574,136.4,107.946,135.241,110.606,133.715Zm71.509,53.929c.417.321.192.427-.946.466a3.661,3.661,0,0,1-1.955-.34c-.256-.224-.3-.068-.112.34.289.632.016.807-1.683,1.137a11.522,11.522,0,0,1-3.3.194c-1.026-.165-1.106-.136-.417.155.673.282.449.36-1.026.36-1.026,0-1.747.136-1.587.291.144.155-.385.224-1.122.136a5.281,5.281,0,0,0-2.212.243,2.454,2.454,0,0,1-2.131-.019,4.6,4.6,0,0,0-1.587-.311c-2.6.894-5.353,1.059-19.44,1.185-6.314.058-10.112-.029-10.112-.233,0-.185-.369-.146-.833.087a2.241,2.241,0,0,1-1.555.136,6.214,6.214,0,0,0-2.019-.185c-.737.049-1.282-.1-1.282-.35,0-.311-.176-.321-.657-.029a2.762,2.762,0,0,1-1.923.078,3.341,3.341,0,0,0-1.619-.1c-.481.282-7.74-.622-7.74-.962,0-.156-.737-.292-1.587-.3a22.351,22.351,0,0,1-4.664-.476c-2.949-.709-4.375-1.02-5.112-1.117a82.572,82.572,0,0,1-9.824-2.8c-3.414-1.137-12.068-6.092-11.523-6.617.208-.2.1-.379-.24-.379-.929,0-2.869-2.167-2.532-2.818.176-.36-.176-1-.833-1.516-1.378-1.069-1.523-2.206-.273-2.206.449,0,.689-.165.513-.35a2.565,2.565,0,0,0-1.458-.34c-.721,0-1.106-.243-1.106-.69,0-.8.577-.894,1.587-.282a1.136,1.136,0,0,0,1.09.155c.208-.136.016-.4-.433-.583-.561-.224-.609-.33-.112-.33.4,0,.705-.156.705-.36,0-.233-.417-.223-1.218.039-.962.311-1.33.3-1.715-.058-.737-.651-.016-5.4,1.234-8.133,1.074-2.342,3.333-5.451,3.382-4.645.016.243.256.408.593.408.785,0,.689-.952-.112-1.108-.385-.087-.465-.428-.192-.9.321-.583.689-.729,1.506-.573.625.126,1.074.058,1.074-.155s.625-.69,1.426-1.108c1.3-.69,1.41-1.322.224-1.322-.337,0-.433.146-.224.35.192.2.128.34-.176.34a2.45,2.45,0,0,0-1.25.952c-.449.583-.833.777-1.01.5-.337-.564,1.346-2.546,4.567-5.412,6.667-5.888,12.661-10.31,13.542-9.97.5.185-4.535,4.091-6.25,4.849-.513.223-.705.525-.449.68s1.01-.117,1.7-.6,2.548-1.778,4.087-2.847c3.109-2.167,3.574-2.614,2.628-2.614a.593.593,0,0,1-.625-.515c0-.282.385-.525.817-.525.5,0,.705.214.513.525-.545.865.08.593,3.894-1.652,3.237-1.914,5-2.876,11.827-6.481,13.8-7.288,41.828-17.6,63.64-23.408,2.965-.787,6.827-1.836,8.526-2.313,5.24-1.458,23.622-5.645,27.853-6.345a42.2,42.2,0,0,0,4.824-.962,21.13,21.13,0,0,1,2.853-.515,14.869,14.869,0,0,0,2.148-.35,15.754,15.754,0,0,1,2.564-.33,12.283,12.283,0,0,0,2.821-.5c.673-.233,1.266-.33,1.266-.2s.433.01.945-.243.962-.408.994-.33a28.48,28.48,0,0,0,4.039-.418c9.087-1.263,11.651-1.526,11.651-1.2,0,.185.337.107.785-.165,1.154-.7,16.138-2.041,28.19-2.526,9.1-.369,9.936-.369,10.369.01.3.262.577.243.913-.068.321-.3,1.539-.428,3.7-.379a15.724,15.724,0,0,0,3.606-.175c.369-.223-2.1-.321-5.4-.2-1.026.039-1.811-.088-1.811-.282s2.548-.36,6.01-.379c5.978-.049,7.853.146,6.491.651-.529.185-.481.291.128.437a3.337,3.337,0,0,0,1.635-.117c.561-.224.593-.311.08-.311-.4,0-.705-.165-.705-.379,0-.34,1.25-.321,12.212.243a17.594,17.594,0,0,1,4.535.612c.929.69,3.109,1.283,3.814,1.02.353-.117.465-.049.256.155-.192.2-.112.476.208.583.3.117.561.039.561-.165,0-.224.288-.272.689-.126,1.186.447,2.051.418,2.372-.087.176-.3-.1-.476-.785-.476a2.631,2.631,0,0,1-1.426-.35c-.753-.729,2.115-.311,3.478.515.785.486,1.346.641,1.25.369a.386.386,0,0,1,.4-.525c.337-.01.561.126.561.33s.224.33.561.311c.352-.019.513-.165.433-.36s.112-.233.449-.107c.352.126.481.3.32.4-.577.35,1.138.962,2.9,1.03,1.475.058,1.747-.039,1.442-.515s-.208-.505.513-.155a1.6,1.6,0,0,0,1.218.223c.5-.291.16.661-.433,1.244-.465.447-.417.457.385.068.625-.311,1.01-.34,1.266-.107.577.573,2.051.447,1.683-.136-.24-.369-.08-.457.545-.311.513.126.737.437.545.739-.256.379-.1.486.529.35a4.061,4.061,0,0,1,2.083.311c.737.311,1.186.35,1.186.117,0-.2-.4-.466-.849-.564s-.849-.34-.849-.505c0-.379,2.4.418,3.029,1a2.723,2.723,0,0,0,1.571.418c1.314,0,2.067.913,1.2,1.448-.417.243-.769.136-1.234-.379a2.04,2.04,0,0,0-1.218-.729c-.337,0-.433.136-.224.35.192.194-.032.34-.545.34s-.881-.126-.881-.311c0-.165-.513-.233-1.138-.136-.882.136-1.138,0-1.138-.583s-.16-.68-.737-.389c-.785.4-3.894.379-4.407-.029a9.688,9.688,0,0,0-2.66-.33,5.863,5.863,0,0,1-2.612-.447,12.572,12.572,0,0,0-3.878-.466,18.548,18.548,0,0,1-4.231-.428,3.987,3.987,0,0,0-1.7-.262c-2.34.126-3.205-.058-2.885-.583.176-.272.064-.515-.208-.515a.5.5,0,0,0-.545.486c0,.253-.4.564-.849.67-.465.1-.865.068-.865-.068a19.109,19.109,0,0,0-4.423-.292c-9.888-.058-17.693-.282-18.078-.525a1.415,1.415,0,0,0-1.026-.01c-.673.253-4.023.408-11.587.525a26.113,26.113,0,0,0-4.663.282c0,.36-4.2.291-4.936-.078-.545-.272-.737-.233-.737.146s-.5.5-1.859.428c-1.25-.058-1.795-.233-1.667-.564.1-.272-.368-.136-1.058.311a4.756,4.756,0,0,1-3.013.709,8.969,8.969,0,0,0-2.532.185,3.163,3.163,0,0,1-1.507.087,12.286,12.286,0,0,0-3.269.272,8.416,8.416,0,0,1-3.4.155c-.625-.214-1.01-.146-1.234.214a1.372,1.372,0,0,1-1.042.515c-.5,0-.449-.117.112-.35.737-.291.737-.34,0-.34-.465,0-1.955.155-3.334.359-2.1.311-2.58.272-3.205-.262-.4-.34-.93-.505-1.17-.36-.224.136-.112.262.24.262a.548.548,0,0,1,.593.6c-.032.34-.176.427-.32.185-.192-.321-.529-.3-1.507.068a8.4,8.4,0,0,1-1.811.534c-.337.039-.513.185-.433.379s-.112.233-.449.107a2.1,2.1,0,0,0-1.362.175c-.609.311-.881.272-1.314-.175-.449-.476-.737-.505-1.811-.155a2.26,2.26,0,0,1-1.907.039,2.692,2.692,0,0,0-1.186-.379c-.321,0,0,.243.673.534a3.416,3.416,0,0,0,1.907.291c.417-.155.5-.087.224.185a2.43,2.43,0,0,1-1.795.223c-.737-.107-1.362-.058-1.362.126s-.673.243-1.474.155c-1.186-.146-1.41-.058-1.138.408.288.486.192.505-.545.136s-1.01-.34-1.731.214c-.449.34-.689.447-.513.223.192-.243.064-.437-.272-.437a1.217,1.217,0,0,0-.946.505c-.256.4-.545.369-1.506-.175a5.091,5.091,0,0,0-2.051-.67c-.641,0-.593.126.256.554.914.447.93.515.112.36-.561-.107-.962-.087-.913.049.224.826-.16,1.117-1.218.933-.737-.136-1.266-.01-1.49.34a1.236,1.236,0,0,1-1.234.36c-1.138-.262-3.061.126-2.644.544.176.165-.336.311-1.122.311-.8,0-1.474-.194-1.49-.437s-.272-.175-.593.175a2.894,2.894,0,0,1-1.827.6c-1.01,0-1.09.068-.385.36.609.262.288.311-1.25.175-1.715-.155-2.051-.087-1.795.33.24.389-.176.515-1.7.515a6.8,6.8,0,0,0-2.853.515c-1.01.622-1.539.68-1.346.136.064-.194-.385-.437-.946-.5-.8-.087-.913-.019-.465.253,1.042.632.8.972-.673.972-2.051,0-4.439.641-4.006,1.069.224.214-.144.262-.994.136-1.651-.253-5.609.981-4.327,1.341.4.117.176.146-.513.068-.737-.078-1.378.068-1.555.359a.765.765,0,0,1-.881.292c-.849-.311-2.949.146-2.516.554.192.185.016.321-.385.282-1.474-.126-2.276.029-1.939.379s-.449.5-1.923.369c-.4-.029-.577.087-.4.262.192.194-.032.418-.545.534s-.737.068-.529-.136c.192-.194-.032-.34-.545-.34s-.881.223-.881.534-.24.447-.577.321c-.3-.107-.561-.029-.561.175s-.593.33-1.282.272c-.673-.049-1.218.078-1.17.282.064.194-.529.564-1.266.777-.914.253-1.394.262-1.394.029,0-.2-.24-.272-.577-.155s-.449.321-.288.486c.256.253-2.26,1.1-3.51,1.176a3.576,3.576,0,0,0-1.2.476,5.528,5.528,0,0,1-2.356.447,4.76,4.76,0,0,0-2.324.515c-.609.437-.545.486.369.311.609-.117-.176.233-1.763.8-1.827.641-2.981.875-3.237.651-.4-.33-.657-.1-.336.282a72.433,72.433,0,0,1-7.228,2.876c-4.087,1.5-8.077,2.973-8.943,3.323s-1.571.525-1.571.408-.545.126-1.17.505a2.841,2.841,0,0,1-1.667.515,1.006,1.006,0,0,0-.914.2c-.256.262-.112.3.4.126.673-.243.689-.214.048.2s-.8.418-1.266-.039c-.433-.408-.545-.379-.545.175,0,.8-2,1.7-2.949,1.341-.353-.126-.465-.068-.257.146.4.389-9.023,4.8-9.92,4.645-.353-.058-.449.029-.256.214.433.428-2.6,1.574-3.846,1.448-.561-.058-.914.058-.737.233.208.2-.016.437-.529.554s-.737.35-.545.554c.176.185-.192.34-.817.34-.641,0-1.17.175-1.17.369s.3.253.705.117.112.155-.657.67a5.663,5.663,0,0,1-2.692.913c-.737,0-1.33.165-1.33.36s.3.262.705.126c.513-.175.529-.126.08.175-.929.6-2.8.3-2.6-.418.224-.777-.032-.758-1.314.107-.93.612-.946.69-.128.5.737-.165.978-.049.978.466a.837.837,0,0,1-.593.807,1.123,1.123,0,0,0-.769.816,1.034,1.034,0,0,1-1.138.632c-.513-.029-.865.136-.737.35s-.353.418-1.138.447c-.978.039-1.282-.087-1.058-.437.545-.865-1.058-.515-1.747.379-.609.8-.1,1.253.609.554a2.142,2.142,0,0,1,1.426-.136c1.01.155,1.026.243.224,1a3.521,3.521,0,0,1-2.2.826,2.1,2.1,0,0,0-1.635.564c-.288.486-.224.505.5.146.465-.233.865-.272.865-.087,0,.515-1.491,1.127-1.987.826-.224-.126-.3,0-.208.272.112.282-.128.476-.513.437-.4-.049-.705.155-.705.457,0,.35-.321.476-.849.35-.705-.175-.753-.087-.288.466.4.476.385.738-.08.913-.4.146-.5.087-.256-.156.224-.233.016-.4-.481-.4-.513,0-.881.214-.881.515a.523.523,0,0,1-.513.515c-.289,0-.689.486-.914,1.108-.513,1.38-3.654,4.256-5.112,4.674a1.385,1.385,0,0,0-1.138,1.147c0,.69-.321.836-1.843.865-1.026.019-1.859-.107-1.859-.282s-.256-.214-.593-.078c-.4.146-.4.359-.032.632A1.278,1.278,0,0,1,87,155.52c-.16.505.064.359.545-.369.433-.651.817-1.088.849-.943l.112.515a1.887,1.887,0,0,0,.625.69c.4.3.3.486-.32.641-.5.117-.769.379-.609.612.256.418-1.522,1.934-2.26,1.934-.176,0-.337-.4-.337-.845,0-.622-.3-.826-1.138-.787-1.138.049-1.651.6-.561.6.337,0,.465.155.272.34a.844.844,0,0,1-.881.156c-.3-.107-.337.136-.048.583a2.314,2.314,0,0,0,1.218.933c.4.087.577,0,.4-.175s.176-.321.737-.321c.962,0,.994.058.192.6a1.064,1.064,0,0,0-.513,1.389c.272.554.208.651-.176.311-.577-.505-2.019-.2-1.491.311,1.09,1.069.385,3.061-.913,2.585a.835.835,0,0,0-.817.2c-.257.262-.529.243-.865-.068a.833.833,0,0,0-.929-.165c-.673.408.689,1.419,1.875,1.4.866-.019,1.058.214.994,1.147a2.179,2.179,0,0,1-.705,1.555c-.8.476-.833,1.049-.064.758.3-.107.577-.019.577.185,0,.223-.433.311-.994.194-.978-.2-.978-.194,0,.253.561.272.8.573.561.729s-.08.2.369.136a1.087,1.087,0,0,1,1.058.311c.144.243-.032.427-.4.427-.337,0-.5.156-.337.33.176.194.08.408-.256.534a.935.935,0,0,0-.577.787c0,.486.1.505.513.107a1.039,1.039,0,0,1,1.763.719c0,1.166,3.814,4.586,7.276,6.53,2.949,1.662,10.641,4.431,12.276,4.431a11,11,0,0,1,2.212.505c3.718,1.176,20.577,2.546,32.229,2.624,6.7.049,23.607-.67,29.616-1.263,1.3-.126,1.442-.039,1.218.719-.16.554-.016.865.417.865.369,0,.561-.214.4-.447-.465-.748.465-1.36,2.212-1.477.9-.058,2.484-.2,3.446-.321a4.413,4.413,0,0,1,2.1.107c.192.175.032.33-.369.35-3.349.2-5.192.418-5.465.651-.192.165-.24.243-.1.2a4.338,4.338,0,0,1,1.33.291c.849.282,1.026.272.705-.049-.272-.292.1-.389,1.234-.311a7.563,7.563,0,0,0,2.18-.107c1.138-.418,5.9-.622,6.25-.272.208.2.16.33-.112.3C182.163,187.022,181.554,187.236,182.115,187.644ZM81.23,167.423c.144.087.433-.068.609-.35.385-.612.064-.748-.5-.2C81.118,167.073,81.07,167.326,81.23,167.423ZM332.264,91.078c0,.175.385.33.849.33.449,0,.849-.068.849-.136s-.4-.233-.849-.33C332.649,90.845,332.264,90.9,332.264,91.078Zm-6.859-1.049c-.337,0-.449.146-.256.35a1.07,1.07,0,0,0,.593.34c.16,0,.256-.136.256-.34S325.742,90.028,325.405,90.028Zm-6.619-1.137a8.563,8.563,0,0,0,3.35.5c.577-.01,1.026.146,1.026.35,0,.243.256.233.769-.019a1.585,1.585,0,0,1,1.138-.155c.208.126.369.068.369-.136s-.577-.457-1.314-.573C322.376,88.571,318.306,88.6,318.786,88.892Zm-5.625-.078c.737.029,1.25-.078,1.106-.233a3.27,3.27,0,0,0-1.619-.2C310.933,88.464,311.286,88.765,313.161,88.814Zm-9.888-.573c0,.544,1.7.8,2.724.4.689-.262.721-.33.112-.233a4.53,4.53,0,0,1-1.843-.165C303.642,88.046,303.273,88.046,303.273,88.24Zm-44.617,3.848c.737-.194.833-.311.289-.321a5.25,5.25,0,0,0-1.7.321C256.172,92.506,257.07,92.5,258.656,92.088Zm-16.876,1.973a1.739,1.739,0,0,0,1.074-.039c.176-.107-.16-.185-.737-.165C241.444,93.876,241.316,93.954,241.781,94.061Zm-45.017,9.445a.5.5,0,0,0,.737.049,5.488,5.488,0,0,1,1.491-.719c1.33-.466.513-.486-1.314-.039C196.939,102.981,196.539,103.292,196.763,103.506Zm-6.411,1.895c.144.088.433-.068.593-.35.4-.622.08-.748-.5-.2C190.24,105.051,190.192,105.3,190.353,105.4Zm-15.385,5.354a2.92,2.92,0,0,0,1.01-.6c0-.3-.449-.136-1.2.447C174.07,111.153,174.086,111.172,174.967,110.754Zm-4.423.087c.513-.117.881-.262.881-.34,0-.272-1.09-.107-1.41.2C169.807,110.9,170.031,110.959,170.544,110.842ZM130.19,126c.513-.117.881-.262.881-.34,0-.262-1.09-.107-1.41.2C129.453,126.068,129.677,126.127,130.19,126Zm-5.225,2.332a3.136,3.136,0,0,0,.994-.6c0-.311-.449-.146-1.2.447C124.052,128.721,124.084,128.74,124.966,128.332ZM120,130.859l1.266-.651a6.4,6.4,0,0,0,1.282-.758c0-.282-.481-.068-1.49.651Zm-5.914,3.08a11.434,11.434,0,0,0,2.773-1.39,11.078,11.078,0,0,0,2.276-1.506C118.619,131.063,113.844,133.8,114.084,133.939Zm-11.827,6.918a.482.482,0,1,0,.962,0,.482.482,0,1,0-.962,0Zm-3.574,2.964c0,.505,1.555-.243,2.34-1.137.369-.418.369-.622-.016-.622a1.241,1.241,0,0,0-.914.69,1.169,1.169,0,0,1-.881.69C98.923,143.442,98.683,143.607,98.683,143.821Zm-1.939,1.273a16.291,16.291,0,0,1-2.324,2.225c-1.09.894-1.779,1.632-1.507,1.632a4.94,4.94,0,0,0,1.811-1.166c.753-.661,1.539-1.108,1.795-1.02s.321-.049.144-.33c-.192-.282.048-.661.561-.913s.881-.554.881-.738C98.106,144.239,97.1,144.472,96.744,145.094Zm-4.311,2.05a3.043,3.043,0,0,0,1.475-.894c.352-.418.817-.632,1.074-.486s.289.068.064-.175c-.272-.282-.064-.428.625-.428.785,0,.849-.068.256-.311-.625-.253-.625-.34,0-.486.593-.126.561-.175-.112-.2a3.091,3.091,0,0,0-1.891,1c-.561.583-.785,1.04-.529,1.049.24.01-.064.262-.689.554C92.032,147.086,91.92,147.232,92.433,147.144Zm-1.538.933a.329.329,0,0,0,.481.321c.288-.1.481-.3.481-.5s-.192-.33-.481-.33A.487.487,0,0,0,90.894,148.077Zm-.625,3.119c.144.087.609-.078.994-.35.433-.311.481-.515.144-.515C90.718,150.331,89.884,150.963,90.269,151.2Zm-1.314-1.215a1.163,1.163,0,0,0,.865-.544c.529-.826.144-.913-.657-.136C88.763,149.68,88.682,149.981,88.955,149.981Zm-.513,3c0,.311.16.457.369.33a1.761,1.761,0,0,1,1.282.2c.545.253.481.117-.144-.33C88.634,152.265,88.442,152.236,88.442,152.984Zm-7.468,10.679a2.409,2.409,0,0,0,1.683.223c.673-.1,1.106-.33.93-.5a.8.8,0,0,0-.817-.126c-.769.292-.689-.321.112-.806.513-.311.449-.408-.288-.408C81.455,162.05,80.4,163.109,80.974,163.663Zm.368,9.066a1.1,1.1,0,0,0-.593-.35c-.16,0-.257.146-.257.35s.257.34.593.34S81.535,172.923,81.342,172.729ZM344,135.4a.768.768,0,0,0-.369.583c0,.214.272.185.673-.049s.561-.486.368-.593A.706.706,0,0,0,344,135.4ZM241.268,92.574a11.58,11.58,0,0,1,2.981-.272c.288.107.481.068.481-.107,0-.146.609-.291,1.282-.321.721-.029,1.907-.155,2.708-.282,3.494-.573,21.139-2.225,25.85-2.429,5.177-.214,13.526-.836,13.831-1.03a20.458,20.458,0,0,0-3.991-.175,31.016,31.016,0,0,0-4.583.194,29.422,29.422,0,0,1-4.231.321c-3.927.126-19.247,1.419-19.953,1.681a19.405,19.405,0,0,1-2.388.36c-1.09.107-4.151.525-6.811.913-2.676.389-5.4.758-6.09.836-3.285.34-4.712.612-4.712.9C235.642,93.488,236.893,93.352,241.268,92.574Zm43.639,69.855-1.987.651c-1.01.34-1.6.719-1.3.836.705.272,2.9-.389,2.9-.875,0-.175.3-.223.657-.1.385.146.5.087.256-.155C285.211,162.584,284.971,162.409,284.907,162.429Zm-61.765,17.879a.584.584,0,0,0-.577.6c0,.515-.064.534-.529.107a.963.963,0,0,0-.978-.262c-.224.126-.112.437.24.641a1.368,1.368,0,0,0,1.507-.029C223.815,180.852,223.991,180.308,223.142,180.308Zm-5.112.35c0-.185.385-.35.849-.35.449,0,.849-.155.849-.34,0-.214-.064-.34-.144-.33s-1.394.243-2.981.534-3.221.612-3.686.729a10.345,10.345,0,0,1-2.788.4,2.691,2.691,0,0,0-1.731.729c-.481.554-.433.651.24.486.465-.107.865-.3.865-.408,0-.2,1.074-.34,4.087-.505.577-.029,1.026-.175,1.026-.33s.737-.272,1.7-.272S218.03,180.852,218.03,180.658Zm.369.836A2.277,2.277,0,0,1,217,181.9c-.9-.34-.481.651.561,1.3.529.34,1.026.466,1.026.262,0-.224.625-.4,1.426-.4,1.667,0,1.731-.243.321-1.341C219.424,181,219.248,180.978,218.4,181.493Zm64.633-15.314c-.449,0-.689.165-.5.35a.822.822,0,0,0,.849.155C284.2,166.384,284.058,166.18,283.032,166.18Zm29.312-15.158a1.186,1.186,0,0,0-.833.69,1.316,1.316,0,0,1-1.074.69,34.523,34.523,0,0,0-6.539,2.643c-.144.068-.1.194.112.321.449.262,2.676-.593,4.6-1.759a6.291,6.291,0,0,1,1.875-.865,18.117,18.117,0,0,0,3.3-1.545,16.127,16.127,0,0,1,3.462-1.564c.625,0,1.587-1,1.2-1.234a15.956,15.956,0,0,0-2.9,1.263A18.03,18.03,0,0,1,312.344,151.021Zm-111.206,34.3c-.785-.175-.849-.126-.3.2.4.243.849.34,1.026.224S201.715,185.448,201.138,185.322Zm10.032-1.564c-.962,0-1.587-.136-1.41-.311.5-.486-2.244-.321-3.446.2a5.036,5.036,0,0,1-2.356.291,7.933,7.933,0,0,0-2.837.282,6.523,6.523,0,0,1-2.276.311c-.4-.087-.705.019-.705.233s-.272.3-.577.194a2.16,2.16,0,0,0-1.282.049,9.889,9.889,0,0,1-2.276.33,6.357,6.357,0,0,0-2.468.632,1.559,1.559,0,0,1-1.587.224c-1.3-.651-5.577.078-5.08.865.192.3-.032.486-.609.486-.513,0-.914.175-.914.4,0,.2.192.282.385.165a1.653,1.653,0,0,1,1.25.214c.673.33.769.33.433-.019-.449-.447,1.01-1.555,1.571-1.2.208.117.353.029.353-.214,0-.622,2.324-.447,3.221.243.481.379.705.418.609.107-.08-.272.192-.554.657-.651.449-.107.641-.01.433.2-.208.194-.064.5.273.622.4.146.5.088.256-.155s.064-.4.8-.4c.785,0,1.042.146.769.427-.288.282-.1.262.529-.039,1.138-.564.289-1.137-1.25-.836-.737.136-.753.107-.112-.175a4.358,4.358,0,0,1,1.843-.223c.577.068,1.058-.039,1.058-.224,0-.2.224-.262.545-.136a.441.441,0,0,1,.224.69c-.417.612-.144.632,1.731.117,1.09-.292,1.394-.573,1.138-1.069-.288-.564-.144-.632.946-.428.849.155,1.154.117.9-.126-.208-.2-.128-.447.208-.564.32-.117.561.136.561.583s.5.981,1.138,1.224c1.314.5,1.507,0,.289-.738-1.186-.719-1.026-.894.8-.894a2.723,2.723,0,0,0,1.971-.525.983.983,0,0,1,1.7,0c.208.33.016.428-.545.3-.513-.117-.785-.01-.689.272.112.282-.256.418-.945.34-.962-.1-.994-.039-.3.466.513.379.881.457,1.026.214a.616.616,0,0,1,.737-.194c.272.107.513.019.513-.185,0-.243.449-.3,1.186-.155a2.161,2.161,0,0,0,1.715-.243c.4-.369.625-.36,1.074.049s.577.36.577-.253C212.917,183.893,212.6,183.757,211.171,183.757Zm-22.869,3.1c-.449,0-.449.107,0,.379a.759.759,0,0,1,.337.943c-.224.457-.16.466.289.087C189.567,187.722,189.183,186.857,188.3,186.857Zm26.491-4.732a1.035,1.035,0,0,0-.978.457c-.176.311-.208.67-.048.758.16.107.272,0,.272-.243s.224-.33.513-.224c.609.224.112,1.574-.561,1.574a.43.43,0,0,0-.481.428c.016.233.545.049,1.154-.4C215.85,183.621,215.914,182.348,214.793,182.125Zm73.768-18.044c-1.09.408-.577,1.02.625.758.561-.117.785-.379.529-.622A1.083,1.083,0,0,0,288.561,164.081Zm-4.039.913c-5.465,1.7-6.827,2.147-8.7,2.828a4.887,4.887,0,0,1-2.132.515c-.016-.146-.272,0-.593.34a1.148,1.148,0,0,1-1.058.437.742.742,0,0,0-.817.379c-.593.923.128.981,1.314.1.945-.69,1.138-.719,1.154-.2.016.34-.368.709-.849.826-.513.117-.769.379-.625.622s-.08.408-.545.408a1.358,1.358,0,0,1-1.106-.632,1.142,1.142,0,0,0-.913-.641c-.385,0-.353.175.064.486.465.34.481.544.048.709-.337.126-.465.35-.3.534.176.185.048.389-.288.515s-.561.078-.561-.107c0-.457-1.635-.34-1.939.136-.176.292.064.379.689.243.513-.107.785-.087.593.049A6.035,6.035,0,0,1,266,172.9a3.4,3.4,0,0,0-1.827.476c-.128.224-.513.272-.914.126-1.362-.515-2.035-.36-2.035.466,0,.447-.272.826-.609.826s-.449-.146-.24-.35c.192-.194.08-.34-.256-.34a.587.587,0,0,0-.609.515c0,.719-1.106.622-1.154-.107-.032-.466-.128-.447-.513.146-.561.826-1.731,1.409-1.731.855,0-.224.273-.379.673-.379.385,0,.208-.214-.417-.5a5.537,5.537,0,0,0-1.683-.505c-.321,0-.112.165.449.369.8.282.881.466.369.836-.369.282-.449.486-.16.486.256,0,.112.146-.353.33a5.743,5.743,0,0,1-2.324.136c-1.186-.146-1.57-.029-1.843.583-.257.593-.625.729-1.506.593-.625-.107-1.042-.078-.914.068.144.146-.369.427-1.17.641-1.875.515-2.148.505-1.763-.078.32-.476-.9-.564-1.635-.117-.8.486-1.474.224-.753-.291.785-.583.4-1.049-.561-.7-.321.117-.433.632-.288,1.147.272.894.24.9-.849.311-1.074-.593-1.122-.593-.817.1.256.593-.369.962-1.106.671a6.964,6.964,0,0,0-1.394.369c-1.026.33-1.282.321-1.314-.039-.016-.262-.256-.2-.593.136a1.722,1.722,0,0,1-1.25.486c-.4-.058-.5-.039-.224.049.8.272.4.845-.465.641-.513-.117-.769-.068-.593.1s-.192.389-.817.486-.994.039-.833-.136c.176-.175.064-.311-.288-.311-.321,0-.593.175-.593.379s-.4.291-.849.194-.849-.049-.849.117-.946.262-2.131.2a13.13,13.13,0,0,0-3.269.214c-.962.262-1.01.243-.256-.146.5-.253.8-.7.689-1.049-.128-.379.128-.6.673-.6.513,0,.881-.117.881-.272,0-.272,5.978-1.448,7.34-1.448.433,0,.609.2.4.515-.465.729.385.661,1.971-.155q1.37-.714.385-.5c-.577.117-.994.058-.994-.146,0-.408,3.141-1.156,3.622-.855.192.107.353.029.353-.175s.513-.321,1.138-.243a2.106,2.106,0,0,0,1.555-.321,22.11,22.11,0,0,1,4.968-1.438,29.5,29.5,0,0,0,4.76-1.234,1.479,1.479,0,0,1,1.01-.282,34.651,34.651,0,0,0,4.888-1.224c2.228-.661,4.471-1.253,4.952-1.3a11.282,11.282,0,0,0,2.42-.709c1.474-.593,3.077-.476,2.42.175-.176.165-.032.311.3.311.369,0,.481-.292.257-.748-.273-.544-.192-.67.336-.457.465.175.577.146.369-.078-.353-.33,4.375-1.827,5.8-1.827.337,0,.625-.107.625-.233,0-.262.561-.5,3.75-1.487a10.828,10.828,0,0,0,1.939-.739,3.9,3.9,0,0,1,1.41-.35,4.077,4.077,0,0,0,1.875-.719,2.621,2.621,0,0,1,1.25-.6C286.061,163.77,285.66,164.634,284.522,164.994Zm-38.078,11.719a.537.537,0,0,0-.577-.534c-.336,0-.561.126-.561.321s.224.408.561.534S246.444,177.014,246.444,176.713Zm3.494-.282c-.561-.33-.625-.292-.337.194.192.34.513.534.705.428S250.338,176.674,249.938,176.431Zm1.619-1.137c0-.087-.224-.156-.577-.156-.32,0-.561.156-.561.36s.24.282.561.155C251.332,175.537,251.556,175.391,251.556,175.294Zm1.987-.845a1.07,1.07,0,0,0-.593-.34c-.16,0-.256.136-.256.34s.256.35.593.35S253.736,174.653,253.544,174.449Zm5.481-1.632a2.3,2.3,0,0,0-1.458.5c-.369.564.24.544,1.555-.058C260.163,172.777,260.163,172.767,259.025,172.816Zm5.321-1.273c-1.426.418-1.474.457-.288.292a7.687,7.687,0,0,0,1.987-.525C266.781,170.892,266.4,170.95,264.345,171.543Zm26.94-8.308c-.4-.155-.529-.107-.32.107.208.194.064.437-.337.534-.513.117-.529.175-.032.194C291.558,164.12,292.055,163.517,291.285,163.235Zm-5.85,2.089c-1.282.768-1.138.894.5.447.8-.214,1.426-.515,1.426-.69C287.359,164.615,286.4,164.732,285.436,165.324Zm19.552-7.618c-1.442.933-1.458,1.1-.064,1.331.849.136,1.042.049.785-.35-.24-.4-.08-.476.657-.311s.914.087.689-.291c-.208-.35.048-.515.785-.515.625,0,1.122-.136,1.122-.311C308.962,156.657,306.109,156.978,304.988,157.706Zm-12.709,4.509a.508.508,0,0,0-.353-.67c-.336-.126-.593-.087-.593.087a7.131,7.131,0,0,1-2.548,1.108,7.007,7.007,0,0,0-2.564,1.1c0,.437.577.34,2.724-.466,1.715-.632,2.164-.68,3.189-.311.914.33,1.042.33.545.019C292.327,162.856,292.135,162.458,292.279,162.215Zm24.408-8.434a1.5,1.5,0,0,0-1.138.515c-.272.408-.112.437.8.156C317.648,154.033,317.777,153.781,316.687,153.781Zm-14.44,5.16a2.9,2.9,0,0,0-1.474.282c-.353.34,1.7.311,2.276-.039C303.273,159.047,302.936,158.94,302.247,158.94Zm-20.738,7.628-.833.194c-.385.1-.545.34-.337.534.224.224,0,.282-.561.156-.513-.107-.946-.049-.946.146s-.176.272-.449.165a4.367,4.367,0,0,0-1.971.437c-1.074.427-1.346.738-.962,1.1.449.418.545.418.545.019.016-.729,1.827-1.438,2.612-1.04.465.243,1.042.107,1.843-.408C281.445,167.219,282.07,166.452,281.509,166.568ZM248.543,173.3c-.513.078-.962.321-.962.515s.529.272,1.266.155a16.4,16.4,0,0,1,1.715-.214c.257,0,.417-.136.417-.34C250.979,173.069,250.306,173.04,248.543,173.3Zm27.148-7.19c.321.2,3.43-.865,4.247-1.448.914-.671.881-.671-1.619-.019C276.445,165.13,275.211,165.82,275.692,166.111Zm-1.346.272c.032.418.16.5.337.214a.485.485,0,0,0-.048-.661C274.458,165.83,274.314,166.043,274.346,166.384Zm-4.6,1.137c0,.156-.321.292-.721.3-.385.01-3.654.865-7.244,1.895-3.574,1.03-7.244,2.05-8.093,2.274s-1.571.554-1.571.738c0,.2.1.34.24.34.449,0,12.036-3.216,12.292-3.411a4.178,4.178,0,0,1,1.394-.321,2.472,2.472,0,0,0,1.346-.437,1.736,1.736,0,0,1,1.138-.321,8.162,8.162,0,0,0,2.628-.865c1.667-.826,1.6-.923-.449-.612C270.2,167.18,269.746,167.375,269.746,167.52Zm18.173-1.671c-.5.194-.577.33-.16.33a1.59,1.59,0,0,0,1.026-.34C289.218,165.422,289.01,165.422,287.92,165.849Zm10.9-8.677A5.154,5.154,0,0,1,296.8,158a4.013,4.013,0,0,0-1.763.544c-2.2,1.049-.8,1.244,1.651.233,1.122-.467,2.4-1.03,2.772-1.224.385-.2,1.2-.583,1.827-.845.962-.408.994-.486.192-.5A7.127,7.127,0,0,0,298.818,157.172Zm-8,3.119c-.449.165-.5.36-.144.5a.975.975,0,0,0,.977-.155C292.167,160.136,291.734,159.961,290.821,160.291Zm-3.686,1.244c-1.25.573-.962.991.449.651.513-.117.914-.418.914-.69C288.5,160.913,288.5,160.913,287.135,161.535Zm-108.321,24.3c0,.214.24.272.561.155.352-.126.577-.262.577-.359s-.224-.155-.577-.155C179.054,185.477,178.814,185.633,178.814,185.837Zm6.539-.7c-.208.194.016.34.529.34s.881-.146.881-.34c0-.214-.208-.35-.529-.35A1.235,1.235,0,0,0,185.352,185.137Zm8.894-.952c-.8.039-1.026.175-.657.4a1.061,1.061,0,0,0,1.218-.049C195.289,184.233,195.144,184.146,194.247,184.185Zm-3.045.1a8.8,8.8,0,0,1-1.939.369c-2.6.282-2.388.515.4.428,1.7-.058,2.612-.243,2.612-.534C192.276,184.1,191.747,183.961,191.2,184.282Zm-9.439,1.2c-1.667.4-1.587.68.176.6.8-.029,1.41-.253,1.41-.505s-.064-.447-.128-.437C183.141,185.157,182.5,185.3,181.763,185.487Zm62.967-11.126c-1.074.292-2.115.564-2.276.6-3.862.807-5.112,1.2-5.112,1.555,0,.2.881.107,2.132-.223,1.2-.321,2.885-.739,3.846-.962,2.388-.544,4.039-1.147,3.686-1.341A7.5,7.5,0,0,0,244.729,174.361Zm-44.344,8.706c-.353,0-.465.146-.256.34a.954.954,0,0,0,.593.35c.144,0,.257-.136.257-.35C200.978,183.213,200.721,183.067,200.385,183.067Zm31.844-5.966a19.565,19.565,0,0,0-3.093.826,4.421,4.421,0,0,1-1.763.311,4.253,4.253,0,0,0-1.619.243,5.267,5.267,0,0,1-1.651.359,2.561,2.561,0,0,0-1.442.457,1.962,1.962,0,0,1-1.314.321c-.625,0-.961.155-.769.35a1.489,1.489,0,0,0,1.314.049,38.134,38.134,0,0,1,3.942-.719c1.651-.243,2.981-.583,2.981-.768s.224-.243.545-.136a.838.838,0,0,0,.881-.156,3.586,3.586,0,0,1,1.731-.34c.737,0,1.394-.126,1.394-.272s.545-.3,1.218-.33a4.622,4.622,0,0,0,1.683-.33C237.085,176.479,234.953,176.547,232.229,177.1Zm-26.988,5.247a4.473,4.473,0,0,1-1.571.136c-.224-.078-.417.029-.417.233,0,.534,3.558.282,3.862-.272C207.372,181.989,206.891,181.96,205.241,182.348Z" transform="translate(-32.739 -93.813) rotate(13)" fill="#535353"/>
</svg>
