<svg xmlns="http://www.w3.org/2000/svg" width="56.977" height="40" viewBox="0 0 56.977 40">
  <g id="Group_226" data-name="Group 226" transform="translate(0 -794.541)">
    <path id="Path_371" data-name="Path 371" d="M483.054,818.791a29.874,29.874,0,0,1,52.664-6.571l-.013-.02a29.766,29.766,0,0,1,3.413,6.591,29.761,29.761,0,0,1-3.413,6.59l.013-.019a29.874,29.874,0,0,1-52.664-6.571Z" transform="translate(-482.597 -4.25)" fill="#74d0ff"/>
    <path id="Path_372" data-name="Path 372" d="M592.031,801.355a19.339,19.339,0,1,0,19.338,19.339,19.339,19.339,0,0,0-19.338-19.339Z" transform="translate(-563.542 -6.153)" fill="#fff"/>
    <path id="Path_373" data-name="Path 373" d="M653.573,894.961a12.73,12.73,0,1,1,12.729-12.73A12.744,12.744,0,0,1,653.573,894.961Z" transform="translate(-625.083 -67.691)" fill="#47c1ff"/>
    <path id="Path_374" data-name="Path 374" d="M682.027,920.36a9.674,9.674,0,1,1,9.673-9.674A9.685,9.685,0,0,1,682.027,920.36Z" transform="translate(-653.538 -96.145)" fill="#fff"/>
    <path id="Path_375" data-name="Path 375" d="M719.971,943.03a5.6,5.6,0,1,0,5.6,5.6A5.606,5.606,0,0,0,719.971,943.03Z" transform="translate(-691.482 -134.089)" fill="#0093de"/>
    <path id="Path_376" data-name="Path 376" d="M641.739,888.7a4.774,4.774,0,1,0-1.607,1.886,1.559,1.559,0,1,0,1.607-1.886Z" transform="translate(-617.706 -78.892)" fill="#fff"/>
    <path id="Path_377" data-name="Path 377" d="M531.832,913.284a30.331,30.331,0,0,1-53.458-6.687.457.457,0,0,1,0-.315,30.274,30.274,0,0,1,5.938-9.822.456.456,0,1,1,.678.611,29.36,29.36,0,0,0-5.7,9.369,29.417,29.417,0,0,0,51.8,6.313.456.456,0,0,1,.755.513l-.013.019Z" transform="translate(-478.345 -91.898)" fill="#027ab7" fill-rule="evenodd"/>
    <path id="Path_378" data-name="Path 378" d="M792.129,808.249l-.015-.02a29.374,29.374,0,0,0-24.256-12.775.456.456,0,1,1,0-.913,30.283,30.283,0,0,1,24.978,13.127l.017.023a30.185,30.185,0,0,1,3.465,6.692.456.456,0,1,1-.857.315A29.274,29.274,0,0,0,792.129,808.249Z" transform="translate(-739.37 0)" fill="#027ab7" fill-rule="evenodd"/>
  </g>
</svg>
