<svg xmlns="http://www.w3.org/2000/svg" width="25.175" height="40" viewBox="0 0 25.175 40">
  <g id="Group_233" data-name="Group 233" transform="translate(0 -682.885)">
    <path id="Path_384" data-name="Path 384" d="M3157.264,1123.157c-.042,2.174-.123,6.244-.123,6.244a2.517,2.517,0,0,0,2.459,2.558l6.521.128a2.516,2.516,0,0,0,2.559-2.459s.079-4.071.122-6.244a9.6,9.6,0,0,1-1.053.375,15.756,15.756,0,0,1-4.737.515A14.311,14.311,0,0,1,3157.264,1123.157Z" transform="translate(-3150.766 -411.44)" fill="#a1dfff"/>
    <path id="Path_385" data-name="Path 385" d="M3202.743,1257.712a2.954,2.954,0,0,0,5.47.108Z" transform="translate(-3193.382 -537.183)" fill="#0093de"/>
    <path id="Path_386" data-name="Path 386" d="M3201.9,1184.92a3.416,3.416,0,0,1-6.187-.41.463.463,0,0,1,.864-.331,2.491,2.491,0,0,0,4.612.09.462.462,0,0,1,.434-.279l.525.01a2.052,2.052,0,0,0,2.087-2.007l.046-2.338a.462.462,0,1,1,.923.018c-.042,2.174-.046,2.339-.046,2.339a2.978,2.978,0,0,1-3.029,2.912l-.229,0Z" transform="translate(-3186.785 -463.815)" fill="#027ab7" fill-rule="evenodd"/>
    <path id="Path_387" data-name="Path 387" d="M3151.78,1124.452a2.047,2.047,0,0,1-.774-1.64s.08-4.071.123-6.244a.462.462,0,0,0-.925-.019c-.042,2.175-.123,6.245-.123,6.245h0a2.975,2.975,0,0,0,1.121,2.38.462.462,0,1,0,.578-.722Z" transform="translate(-3144.168 -404.842)" fill="#027ab7" fill-rule="evenodd"/>
    <path id="Path_388" data-name="Path 388" d="M3066.855,701.831a12.036,12.036,0,0,0,.177,2.317v0q.141.671.314,1.357a48.762,48.762,0,0,0,5.542,12.808,17.08,17.08,0,0,0,11.529.228l.007,0a48.582,48.582,0,0,0,6.042-12.581c.135-.453.26-.9.367-1.341h0a12.129,12.129,0,0,0-22.812-7.753v0a12.078,12.078,0,0,0-1.169,4.965Z" transform="translate(-3066.39 -6.597)" fill="#fff"/>
    <path id="Path_389" data-name="Path 389" d="M3078.6,690.285l-.923-.033v0a.467.467,0,0,1,.044-.182,12.592,12.592,0,0,1,23.681,8.049l-.113.2.109-.187q-.166.674-.375,1.365a49.131,49.131,0,0,1-6.143,12.762.462.462,0,1,1-.678-.628,48.116,48.116,0,0,0,5.937-12.4c.133-.444.256-.884.361-1.317l0-.013a11.666,11.666,0,0,0-21.948-7.434l.044-.18Z" transform="translate(-3076.505 0)" fill="#027ab7" fill-rule="evenodd"/>
    <path id="Path_390" data-name="Path 390" d="M3059.977,867.237a12.5,12.5,0,0,1-.181-2.39.462.462,0,0,1,.925.018,11.524,11.524,0,0,0,.169,2.228v0c.092.435.194.876.306,1.32a48.266,48.266,0,0,0,5.446,12.624.462.462,0,1,1-.7.6,49.251,49.251,0,0,1-5.637-12.993c-.119-.464-.224-.923-.319-1.376,0-.011,0-.022-.006-.033Z" transform="translate(-3059.793 -169.622)" fill="#027ab7" fill-rule="evenodd"/>
    <path id="Path_391" data-name="Path 391" d="M3188.07,753.722a2.229,2.229,0,0,0,.774-.139,2.19,2.19,0,0,0,1.282-2.816q-.531-1.422-1.122-2.823c-.385-.937-.829-1.856-1.251-2.779-.2-.465-.454-.913-.681-1.372s-.461-.91-.717-1.357a30.429,30.429,0,0,0-1.616-2.655.74.74,0,0,0-1.348.465,30.639,30.639,0,0,0,.363,3.086c.073.51.171,1.009.271,1.513s.182,1.007.308,1.5c.222.937.432,1.879.686,2.807-1.249-.026-2.5-.034-3.748-.007l-.246,0a2.041,2.041,0,0,0-1.864,2.737c.294.807.59,1.616.923,2.413s.635,1.6,1.007,2.388q.517,1.189,1.112,2.356c.391.78.806,1.551,1.271,2.307a.737.737,0,0,0,1.366-.407c-.028-.888-.1-1.761-.2-2.628s-.22-1.727-.366-2.58c-.1-.725-.25-1.435-.394-2.149l4.194.138Z" transform="translate(-3171.229 -52.872)" fill="#0093de"/>
  </g>
</svg>
