<svg xmlns="http://www.w3.org/2000/svg" width="13.979" height="9.323" viewBox="0 0 13.979 9.323">
  <path id="Icon_ionic-ios-arrow-round-forward" data-name="Icon ionic-ios-arrow-round-forward" d="M16.789,11.43a.634.634,0,0,0,0,.893l2.952,2.957H8.5a.631.631,0,0,0,0,1.262h11.23L16.78,19.5a.639.639,0,0,0,0,.893.629.629,0,0,0,.889,0l4-4.03h0a.709.709,0,0,0,.131-.2.6.6,0,0,0,.049-.243.633.633,0,0,0-.18-.442l-4-4.03A.619.619,0,0,0,16.789,11.43Z" transform="translate(-7.875 -11.252)" fill="#027ab7"/>
</svg>
