<svg xmlns="http://www.w3.org/2000/svg" width="24.734" height="16.496" viewBox="0 0 24.734 16.496">
  <path id="Icon_ionic-ios-arrow-round-forward" data-name="Icon ionic-ios-arrow-round-forward" d="M23.648,11.568a1.123,1.123,0,0,0-.009,1.581l5.223,5.232H8.983a1.117,1.117,0,0,0,0,2.234H28.854l-5.223,5.232a1.131,1.131,0,0,0,.009,1.581,1.112,1.112,0,0,0,1.572-.009l7.079-7.131h0a1.254,1.254,0,0,0,.232-.352,1.066,1.066,0,0,0,.086-.43,1.12,1.12,0,0,0-.318-.782l-7.079-7.131A1.094,1.094,0,0,0,23.648,11.568Z" transform="translate(-7.875 -11.252)" fill="#fff"/>
</svg>
